<svg width="387" height="56" viewBox="0 0 387 56" fill="none" xmlns="http://www.w3.org/2000/svg">
<path d="M22.0883 19.2022C22.0883 15.1106 29.7708 14.1928 36.0319 14.1928C42.3315 14.1928 47.6708 15.1488 49.9756 19.2022H71.0638C69.1432 3.14144 54.1241 1.11472 36.0319 1C17.9014 1 1.00005 4.51808 1.00005 19.2022C0.961642 32.0509 21.2048 33.0451 35.6094 33.7717C43.7144 34.1541 49.9756 34.4983 49.9756 36.7544C49.9756 40.7314 42.2931 41.7639 36.0319 41.7639C29.7323 41.7639 24.3931 40.7314 22.0883 36.7544H1.00005C2.92066 52.7005 17.9398 54.8802 36.0319 54.9184C54.1625 54.9184 71.0638 51.4386 71.0638 36.7544C71.1022 23.8675 50.859 22.8733 36.4545 22.1467C28.3495 21.7643 22.0883 21.4584 22.0883 19.2022Z" fill="white"/>
<path d="M76.4415 53.733H136.864V40.5402H96.5695V33.9629H136.864V22.0702H96.5695V15.493H136.864V2.3384H76.4415V53.733Z" fill="white"/>
<path d="M147.581 2.30016V53.6947H167.709V41.152H185.686L195.404 53.6947H216.838L205.583 39.2783C208.964 37.7104 211.691 35.3395 213.727 32.2421C215.801 29.1064 216.838 25.5883 216.838 21.7261C216.992 11.0954 207.965 2.18544 197.325 2.30016H147.581ZM192.254 17.3285C194.713 17.3285 196.672 19.2787 196.672 21.7261C196.672 22.9115 196.249 23.944 195.366 24.8235C194.521 25.6648 193.483 26.0855 192.254 26.0855H167.709V17.3285H192.254Z" fill="white"/>
<path d="M223.099 2.26192V53.6565H243.227V2.26192H223.099Z" fill="white"/>
<path d="M284.443 17.2138L291.511 32.3951H277.337L284.443 17.2138ZM244.764 53.733H267.427L271.499 44.9378H297.35L301.422 53.733H324.085L296.39 2.3384H272.459L244.764 53.733Z" fill="white"/>
<path d="M325.66 2.26192V53.6565H386.082V37.3663H345.788V2.26192H325.66Z" fill="white"/>
<path d="M22.0883 54.1695L49.9756 19.2022H71.0638L94.1965 55L22.0883 54.1695Z" fill="white"/>
<path d="M22.0883 19.2022C22.0883 15.1106 29.7708 14.1928 36.0319 14.1928C42.3315 14.1928 47.6708 15.1488 49.9756 19.2022H71.0638C69.1432 3.14144 54.1241 1.11472 36.0319 1C17.9014 1 1.00005 4.51808 1.00005 19.2022C0.961642 32.0509 21.2048 33.0451 35.6094 33.7717C43.7144 34.1541 49.9756 34.4983 49.9756 36.7544C49.9756 40.7314 42.2931 41.7639 36.0319 41.7639C29.7323 41.7639 24.3931 40.7314 22.0883 36.7544H1.00005C2.92066 52.7005 17.9398 54.8802 36.0319 54.9184C54.1625 54.9184 71.0638 51.4386 71.0638 36.7544C71.1022 23.8675 50.859 22.8733 36.4545 22.1467C28.3495 21.7643 22.0883 21.4584 22.0883 19.2022Z" fill="white"/>
<path d="M0.900055 19.2296C0.890401 22.4769 2.16187 24.9783 4.29886 26.9103C6.43248 28.8392 9.42603 30.1982 12.8613 31.1744C19.7003 33.1178 28.3279 33.5536 35.5079 33.9163L35.6044 33.9212L35.6047 33.9212C39.6592 34.1128 43.2443 34.2945 45.8159 34.7099C47.1026 34.9177 48.1263 35.1827 48.826 35.5318C49.5269 35.8815 49.8756 36.3005 49.8756 36.8085C49.8756 37.7669 49.4153 38.5518 48.6147 39.1948C47.8117 39.8398 46.6703 40.3378 45.3247 40.7143C42.6344 41.4671 39.1591 41.7255 36.0319 41.7255C32.8861 41.7255 29.9881 41.4671 27.592 40.7152C25.1972 39.9637 23.311 38.7218 22.1749 36.7584L22.146 36.7085H22.0883H1.00005H0.887308L0.90077 36.8205C1.38281 40.8287 2.68765 43.9778 4.66175 46.4454C6.63555 48.9127 9.2738 50.6931 12.414 51.9713C18.6902 54.5262 26.9858 55.0809 36.0317 55.1H36.0319C45.1004 55.1 53.8748 54.2289 60.3854 51.5114C63.6419 50.1522 66.3372 48.3289 68.2186 45.9167C70.101 43.5031 71.1638 40.5059 71.1638 36.8088C71.1735 33.552 69.9021 31.0434 67.7651 29.106C65.6315 27.1716 62.638 25.809 59.2027 24.8304C52.3635 22.8822 43.7357 22.4464 36.5556 22.0837L36.4595 22.0788L36.4592 22.0788C32.4045 21.8872 28.8194 21.7151 26.2476 21.3092C24.9609 21.1061 23.9372 20.8459 23.2376 20.5003C22.5368 20.1542 22.1883 19.7376 22.1883 19.2298C22.1883 18.2417 22.6495 17.4426 23.4495 16.7948C24.2522 16.1447 25.3932 15.6503 26.7387 15.281C29.4288 14.5426 32.904 14.3128 36.0319 14.3128C39.1783 14.3128 42.0762 14.5521 44.4722 15.2945C46.8666 16.0363 48.7525 17.278 49.8886 19.2792L49.9173 19.3298H49.9756H71.0638H71.1765L71.1631 19.2179C70.6811 15.1811 69.3763 12.02 67.4022 9.54921C65.4283 7.07882 62.7899 5.30446 59.6497 4.03337C53.3736 1.49293 45.078 0.957445 36.0326 0.900002V0.9H36.0319C26.9634 0.9 18.189 1.78068 11.6784 4.50776C8.42192 5.87181 5.72661 7.6999 3.84528 10.1157C1.96288 12.5329 0.900083 15.5325 0.900055 19.2296ZM0.900055 19.2296C0.900055 19.2296 0.900055 19.2295 0.900055 19.2295L1.00005 19.2298H0.900055C0.900055 19.2297 0.900055 19.2297 0.900055 19.2296ZM147.481 2.20213H147.581H197.324C208.019 2.08695 217.092 11.0546 216.938 21.7578C216.938 21.7582 216.938 21.7585 216.938 21.7589L216.838 21.7574C216.838 25.6255 215.801 29.1489 213.727 32.2894L147.481 2.20213ZM147.481 2.20213V2.30213V53.7745V53.8745H147.581H167.709H167.809V53.7745V41.3128L147.481 2.20213ZM76.3415 53.8128V53.9128H76.4415H136.864H136.964V53.8128V40.6V40.5H136.864H96.6695V34.1128H136.864H136.964V34.0128V22.1021V22.0021H136.864H96.6695V15.6149H136.864H136.964V15.5149V2.34043V2.24043H136.864H76.4415H76.3415V2.34043V53.8128ZM223.099 2.16383H222.999V2.26383V53.7362V53.8362H223.099H243.227H243.327V53.7362V2.26383V2.16383H243.227H223.099ZM244.676 53.7654L244.596 53.9128H244.764H267.427H267.491L267.518 53.8547L271.562 45.1043H297.286L301.331 53.8547L301.358 53.9128H301.422H324.085H324.252L324.173 53.7654L296.478 2.29304L296.449 2.24043H296.39H272.459H272.399L272.371 2.29304L244.676 53.7654ZM325.66 2.16383H325.56V2.26383V53.7362V53.8362H325.66H386.082H386.182V53.7362V37.4213V37.3213H386.082H345.888V2.26383V2.16383H345.788H325.66ZM192.254 17.4532C194.658 17.4532 196.572 19.3619 196.572 21.7574C196.572 22.9178 196.16 23.9264 195.295 24.7888C194.469 25.612 193.458 26.0234 192.254 26.0234H167.809V17.4532H192.254ZM277.494 32.3426L284.443 17.475L291.354 32.3426H277.494Z" fill="white" stroke="black" stroke-width="0.2"/>
</svg>
