<svg width="233" height="121" viewBox="0 0 233 121" fill="none" xmlns="http://www.w3.org/2000/svg">
<path d="M178.586 0.469381C169.57 1.89443 162.739 6.13379 163.329 9.93829C163.918 13.7428 171.704 15.6717 180.719 14.2467C189.735 12.8216 196.566 8.58227 195.977 4.77777C195.387 0.973269 187.601 -0.955662 178.586 0.469381Z" fill="white"/>
<path d="M163.449 9.91947L142.046 77.1416L232.767 60.3744L195.883 4.79277L163.449 9.91947Z" fill="#1045FF"/>
<path d="M23.2769 49.2711C23.2449 48.5289 23.0852 47.8834 22.7977 47.3348C22.5262 46.7862 22.1509 46.3263 21.6718 45.9552C21.1927 45.584 20.6177 45.3097 19.9469 45.1322C19.2921 44.9386 18.5734 44.8418 17.7908 44.8418C17.3117 44.8418 16.7927 44.8983 16.2337 45.0112C15.6907 45.1242 15.1796 45.3259 14.7005 45.6163C14.2373 45.8906 13.854 46.2698 13.5506 46.7539C13.2471 47.2218 13.0954 47.8108 13.0954 48.5208C13.0954 49.2147 13.2631 49.7794 13.5985 50.2151C13.9339 50.6508 14.3731 51.0058 14.9161 51.2801C15.4591 51.5382 16.0819 51.748 16.7847 51.9094C17.4874 52.0707 18.1981 52.224 18.9168 52.3693C19.6515 52.5145 20.3622 52.692 21.0489 52.9017C21.7516 53.0954 22.3745 53.3697 22.9175 53.7247C23.4765 54.0635 23.9237 54.5154 24.2591 55.0801C24.5945 55.6287 24.7622 56.3226 24.7622 57.1617C24.7622 58.0653 24.5705 58.8237 24.1872 59.4369C23.8039 60.05 23.3168 60.5502 22.7259 60.9375C22.1509 61.3248 21.5041 61.5991 20.7854 61.7604C20.0827 61.9379 19.4039 62.0267 18.7491 62.0267C17.7429 62.0267 16.8006 61.9137 15.9222 61.6878C15.0438 61.4781 14.2772 61.1311 13.6224 60.6471C12.9676 60.1468 12.4486 59.5095 12.0653 58.7349C11.6979 57.9604 11.5222 57.0164 11.5382 55.9031H12.5923C12.5444 56.8551 12.6801 57.6619 12.9996 58.3235C13.319 58.9689 13.7582 59.5014 14.3172 59.9209C14.8921 60.3405 15.5629 60.6471 16.3295 60.8407C17.0961 61.0182 17.9026 61.1069 18.7491 61.1069C19.2602 61.1069 19.8032 61.0424 20.3781 60.9133C20.9691 60.7842 21.5041 60.5664 21.9832 60.2598C22.4783 59.9532 22.8856 59.5498 23.205 59.0496C23.5404 58.5494 23.7081 57.9201 23.7081 57.1617C23.7081 56.4355 23.5404 55.8466 23.205 55.3948C22.8696 54.9268 22.4224 54.5557 21.8634 54.2814C21.3204 53.9909 20.6976 53.765 19.9948 53.6037C19.3081 53.4262 18.5974 53.2648 17.8627 53.1196C17.144 52.9744 16.4333 52.8049 15.7306 52.6113C15.0279 52.4177 14.405 52.1595 13.862 51.8368C13.319 51.4979 12.8798 51.0703 12.5444 50.5539C12.209 50.0215 12.0413 49.3437 12.0413 48.5208C12.0413 47.6979 12.209 46.9959 12.5444 46.415C12.8957 45.818 13.3429 45.342 13.8859 44.987C14.4449 44.6159 15.0678 44.3496 15.7545 44.1883C16.4413 44.0108 17.1201 43.922 17.7908 43.922C18.6852 43.922 19.5157 44.0269 20.2823 44.2367C21.0649 44.4303 21.7437 44.745 22.3186 45.1806C22.9095 45.6002 23.3807 46.1488 23.732 46.8265C24.0834 47.5042 24.283 48.3191 24.3309 49.2711H23.2769Z" fill="white"/>
<path d="M27.2029 44.3335H28.257V52.1756H39.1811V44.3335H40.2352V61.6152H39.1811V53.0954H28.257V61.6152H27.2029V44.3335Z" fill="white"/>
<path d="M43.2519 44.3335H54.751V45.2532H44.3059V52.1756H54.1281V53.0954H44.3059V60.6955H54.8707V61.6152H43.2519V44.3335Z" fill="white"/>
<path d="M56.6572 44.3335H62.263C63.7962 44.3335 65.0659 44.5755 66.0721 45.0596C67.0942 45.5437 67.9087 46.1891 68.5156 46.9959C69.1225 47.8027 69.5457 48.7225 69.7853 49.7552C70.0408 50.7879 70.1686 51.8529 70.1686 52.9502C70.1686 54.1765 70.0089 55.3222 69.6895 56.3871C69.386 57.436 68.9069 58.3477 68.2521 59.1222C67.5973 59.8967 66.7668 60.5099 65.7606 60.9617C64.7704 61.3974 63.5886 61.6152 62.2151 61.6152H56.6572V44.3335ZM62.3109 60.6955C63.1094 60.6955 63.908 60.5744 64.7065 60.3324C65.5211 60.0742 66.2557 59.6547 66.9105 59.0738C67.5653 58.4768 68.0924 57.6861 68.4917 56.7018C68.9069 55.7014 69.1145 54.4508 69.1145 52.9502C69.1145 51.7722 68.9947 50.7637 68.7552 49.9246C68.5316 49.0856 68.2281 48.3836 67.8448 47.8189C67.4775 47.238 67.0463 46.7862 66.5512 46.4635C66.0721 46.1246 65.569 45.8664 65.0419 45.6889C64.5309 45.5114 64.0118 45.3985 63.4848 45.3501C62.9737 45.2855 62.5105 45.2532 62.0953 45.2532H57.7113V60.6955H62.3109Z" fill="white"/>
<path d="M90.4672 49.2711C90.4353 48.5289 90.2756 47.8834 89.9881 47.3348C89.7166 46.7862 89.3413 46.3263 88.8621 45.9552C88.383 45.584 87.808 45.3097 87.1373 45.1322C86.4824 44.9386 85.7638 44.8418 84.9812 44.8418C84.5021 44.8418 83.983 44.8983 83.424 45.0112C82.881 45.1242 82.3699 45.3259 81.8908 45.6163C81.4276 45.8906 81.0443 46.2698 80.7409 46.7539C80.4374 47.2218 80.2857 47.8108 80.2857 48.5208C80.2857 49.2147 80.4534 49.7794 80.7888 50.2151C81.1242 50.6508 81.5634 51.0058 82.1064 51.2801C82.6494 51.5382 83.2723 51.748 83.975 51.9094C84.6777 52.0707 85.3884 52.224 86.1071 52.3693C86.8418 52.5145 87.5525 52.692 88.2393 52.9017C88.942 53.0954 89.5648 53.3697 90.1079 53.7247C90.6668 54.0635 91.114 54.5154 91.4494 55.0801C91.7848 55.6287 91.9525 56.3226 91.9525 57.1617C91.9525 58.0653 91.7608 58.8237 91.3775 59.4369C90.9942 60.05 90.5071 60.5502 89.9162 60.9375C89.3413 61.3248 88.6944 61.5991 87.9757 61.7604C87.273 61.9379 86.5942 62.0267 85.9394 62.0267C84.9333 62.0267 83.991 61.9137 83.1126 61.6878C82.2342 61.4781 81.4676 61.1311 80.8128 60.6471C80.158 60.1468 79.6389 59.5095 79.2556 58.7349C78.8883 57.9604 78.7126 57.0164 78.7285 55.9031H79.7826C79.7347 56.8551 79.8705 57.6619 80.1899 58.3235C80.5093 58.9689 80.9485 59.5014 81.5075 59.9209C82.0825 60.3405 82.7532 60.6471 83.5198 60.8407C84.2864 61.0182 85.093 61.1069 85.9394 61.1069C86.4505 61.1069 86.9935 61.0424 87.5685 60.9133C88.1594 60.7842 88.6944 60.5664 89.1736 60.2598C89.6687 59.9532 90.0759 59.5498 90.3953 59.0496C90.7307 58.5494 90.8984 57.9201 90.8984 57.1617C90.8984 56.4355 90.7307 55.8466 90.3953 55.3948C90.0599 54.9268 89.6128 54.5557 89.0538 54.2814C88.5108 53.9909 87.8879 53.765 87.1852 53.6037C86.4984 53.4262 85.7877 53.2648 85.053 53.1196C84.3344 52.9744 83.6236 52.8049 82.9209 52.6113C82.2182 52.4177 81.5953 52.1595 81.0523 51.8368C80.5093 51.4979 80.0701 51.0703 79.7347 50.5539C79.3993 50.0215 79.2316 49.3437 79.2316 48.5208C79.2316 47.6979 79.3993 46.9959 79.7347 46.415C80.0861 45.818 80.5333 45.342 81.0763 44.987C81.6353 44.6159 82.2581 44.3496 82.9449 44.1883C83.6316 44.0108 84.3104 43.922 84.9812 43.922C85.8756 43.922 86.706 44.0269 87.4727 44.2367C88.2552 44.4303 88.934 44.745 89.5089 45.1806C90.0999 45.6002 90.571 46.1488 90.9224 46.8265C91.2737 47.5042 91.4734 48.3191 91.5213 49.2711H90.4672Z" fill="white"/>
<path d="M109.893 52.9744C109.893 54.233 109.709 55.419 109.342 56.5324C108.975 57.6296 108.44 58.5897 107.737 59.4127C107.05 60.2195 106.204 60.8568 105.198 61.3248C104.191 61.7927 103.05 62.0267 101.772 62.0267C100.494 62.0267 99.3443 61.7927 98.3221 61.3248C97.3159 60.8568 96.4615 60.2195 95.7588 59.4127C95.072 58.5897 94.545 57.6296 94.1777 56.5324C93.8103 55.419 93.6266 54.233 93.6266 52.9744C93.6266 51.7157 93.8103 50.5378 94.1777 49.4406C94.545 48.3272 95.072 47.3671 95.7588 46.5603C96.4615 45.7373 97.3159 45.0919 98.3221 44.6239C99.3443 44.156 100.494 43.922 101.772 43.922C103.05 43.922 104.191 44.156 105.198 44.6239C106.204 45.0919 107.05 45.7373 107.737 46.5603C108.44 47.3671 108.975 48.3272 109.342 49.4406C109.709 50.5378 109.893 51.7157 109.893 52.9744ZM94.6807 52.9744C94.6807 54.0877 94.8404 55.1366 95.1599 56.1209C95.4793 57.1052 95.9424 57.9685 96.5493 58.7107C97.1562 59.4369 97.8989 60.0177 98.7773 60.4534C99.6557 60.8891 100.654 61.1069 101.772 61.1069C102.89 61.1069 103.88 60.8891 104.742 60.4534C105.621 60.0177 106.363 59.4369 106.97 58.7107C107.577 57.9685 108.04 57.1052 108.36 56.1209C108.679 55.1366 108.839 54.0877 108.839 52.9744C108.839 51.861 108.679 50.8121 108.36 49.8278C108.04 48.8435 107.577 47.9883 106.97 47.2622C106.363 46.5199 105.621 45.931 104.742 45.4953C103.88 45.0596 102.89 44.8418 101.772 44.8418C100.654 44.8418 99.6557 45.0596 98.7773 45.4953C97.8989 45.931 97.1562 46.5199 96.5493 47.2622C95.9424 47.9883 95.4793 48.8435 95.1599 49.8278C94.8404 50.8121 94.6807 51.861 94.6807 52.9744Z" fill="white"/>
<path d="M112.15 44.3335H113.659L120.343 60.4292H120.391L127.003 44.3335H128.512V61.6152H127.458V45.6405H127.41L120.894 61.6152H119.84L113.252 45.6405H113.204V61.6152H112.15V44.3335Z" fill="white"/>
<path d="M131.521 44.3335H143.02V45.2532H132.575V52.1756H142.397V53.0954H132.575V60.6955H143.14V61.6152H131.521V44.3335Z" fill="white"/>
<path d="M151.738 44.3335V61.6152H163.836V58.4203H155.499V44.3335H151.738Z" fill="white"/>
<path d="M165.938 44.3335V61.6152H169.7V44.3335H165.938Z" fill="white"/>
<path d="M185.365 59.6547L185.749 61.6152H188.144V52.2724H180.957V55.1043H184.742C184.631 56.3145 184.231 57.2423 183.545 57.8878C182.874 58.5171 181.915 58.8318 180.67 58.8318C179.823 58.8318 179.105 58.6704 178.514 58.3477C177.923 58.0088 177.444 57.5651 177.076 57.0164C176.709 56.4678 176.437 55.8546 176.262 55.1769C176.102 54.4831 176.022 53.7731 176.022 53.047C176.022 52.2886 176.102 51.5544 176.262 50.8444C176.437 50.1344 176.709 49.5051 177.076 48.9565C177.444 48.3917 177.923 47.948 178.514 47.6253C179.105 47.2864 179.823 47.117 180.67 47.117C181.58 47.117 182.355 47.359 182.994 47.8431C183.632 48.3272 184.064 49.0533 184.287 50.0215H187.881C187.785 49.0372 187.521 48.1658 187.09 47.4074C186.659 46.649 186.108 46.0116 185.437 45.4953C184.782 44.9789 184.04 44.5917 183.209 44.3335C182.395 44.0592 181.548 43.922 180.67 43.922C179.36 43.922 178.178 44.156 177.124 44.6239C176.086 45.0919 175.208 45.7373 174.489 46.5603C173.77 47.3832 173.219 48.3514 172.836 49.4648C172.453 50.562 172.261 51.7561 172.261 53.047C172.261 54.3056 172.453 55.4835 172.836 56.5808C173.219 57.6619 173.77 58.6058 174.489 59.4127C175.208 60.2195 176.086 60.8568 177.124 61.3248C178.178 61.7766 179.36 62.0025 180.67 62.0025C181.5 62.0025 182.323 61.8331 183.137 61.4942C183.952 61.1392 184.694 60.526 185.365 59.6547Z" fill="white"/>
<path d="M191.182 44.3335V61.6152H194.943V54.1604H201.866V61.6152H205.627V44.3335H201.866V50.9654H194.943V44.3335H191.182Z" fill="white"/>
<path d="M212.723 47.5284V61.6152H216.485V47.5284H221.611V44.3335H207.597V47.5284H212.723Z" fill="white"/>
<path d="M16.2664 82.221C16.2664 83.4796 16.0828 84.6656 15.7154 85.779C15.3481 86.8762 14.8131 87.8363 14.1103 88.6593C13.4236 89.4661 12.5771 90.1035 11.571 90.5714C10.5648 91.0393 9.42287 91.2733 8.14519 91.2733C6.86751 91.2733 5.71761 91.0393 4.69546 90.5714C3.68929 90.1035 2.83485 89.4661 2.13212 88.6593C1.44537 87.8363 0.91833 86.8762 0.550998 85.779C0.183666 84.6656 0 83.4796 0 82.221C0 80.9624 0.183666 79.7844 0.550998 78.6872C0.91833 77.5738 1.44537 76.6137 2.13212 75.8069C2.83485 74.984 3.68929 74.3385 4.69546 73.8706C5.71761 73.4026 6.86751 73.1687 8.14519 73.1687C9.42287 73.1687 10.5648 73.4026 11.571 73.8706C12.5771 74.3385 13.4236 74.984 14.1103 75.8069C14.8131 76.6137 15.3481 77.5738 15.7154 78.6872C16.0828 79.7844 16.2664 80.9624 16.2664 82.221ZM1.05408 82.221C1.05408 83.3344 1.21379 84.3832 1.53321 85.3675C1.85263 86.3518 2.31579 87.2151 2.92269 87.9574C3.52958 88.6835 4.27223 89.2644 5.15064 89.7001C6.02904 90.1357 7.02722 90.3536 8.14519 90.3536C9.26316 90.3536 10.2534 90.1357 11.1158 89.7001C11.9942 89.2644 12.7368 88.6835 13.3437 87.9574C13.9506 87.2151 14.4138 86.3518 14.7332 85.3675C15.0526 84.3832 15.2123 83.3344 15.2123 82.221C15.2123 81.1076 15.0526 80.0588 14.7332 79.0745C14.4138 78.0902 13.9506 77.2349 13.3437 76.5088C12.7368 75.7666 11.9942 75.1776 11.1158 74.7419C10.2534 74.3062 9.26316 74.0884 8.14519 74.0884C7.02722 74.0884 6.02904 74.3062 5.15064 74.7419C4.27223 75.1776 3.52958 75.7666 2.92269 76.5088C2.31579 77.2349 1.85263 78.0902 1.53321 79.0745C1.21379 80.0588 1.05408 81.1076 1.05408 82.221Z" fill="white"/>
<path d="M23.3693 89.9421H23.4172L29.3345 73.5801H30.3886L23.9922 90.8619H22.7704L16.398 73.5801H17.5L23.3693 89.9421Z" fill="white"/>
<path d="M31.5544 73.5801H43.0535V74.4999H32.6085V81.4222H42.4306V82.342H32.6085V89.9421H43.1733V90.8619H31.5544V73.5801Z" fill="white"/>
<path d="M44.9597 73.5801H52.0987C52.8493 73.5801 53.5521 73.6608 54.2069 73.8222C54.8617 73.9674 55.4366 74.2175 55.9317 74.5725C56.4268 74.9113 56.8101 75.3632 57.0817 75.9279C57.3691 76.4927 57.5129 77.1946 57.5129 78.0337C57.5129 79.1955 57.1855 80.1798 56.5307 80.9866C55.8918 81.7772 54.9974 82.2694 53.8475 82.463V82.5114C54.6301 82.6083 55.245 82.818 55.6922 83.1407C56.1553 83.4635 56.4987 83.8588 56.7223 84.3268C56.9459 84.7947 57.0896 85.311 57.1535 85.8758C57.2174 86.4406 57.2494 87.0053 57.2494 87.5701C57.2494 87.909 57.2494 88.2397 57.2494 88.5625C57.2494 88.8852 57.2653 89.1918 57.2973 89.4822C57.3292 89.7565 57.3771 90.0147 57.441 90.2568C57.5209 90.4988 57.6247 90.7005 57.7524 90.8619H56.5786C56.355 90.4585 56.2272 89.9905 56.1953 89.458C56.1793 88.9094 56.1713 88.3446 56.1713 87.7637C56.1713 87.1828 56.1474 86.61 56.0994 86.0452C56.0515 85.4643 55.8998 84.948 55.6443 84.4962C55.3887 84.0444 54.9815 83.6813 54.4225 83.407C53.8795 83.1327 53.1049 82.9955 52.0987 82.9955H46.0138V90.8619H44.9597V73.5801ZM52.0987 82.0758C52.7216 82.0758 53.2965 82.0032 53.8236 81.8579C54.3666 81.6966 54.8298 81.4545 55.2131 81.1318C55.5964 80.8091 55.8998 80.3976 56.1234 79.8974C56.347 79.3972 56.4588 78.8001 56.4588 78.1063C56.4588 77.4608 56.339 76.9122 56.0994 76.4604C55.8599 75.9925 55.5405 75.6133 55.1412 75.3228C54.7419 75.0324 54.2788 74.8226 53.7517 74.6935C53.2247 74.5644 52.6737 74.4999 52.0987 74.4999H46.0138V82.0758H52.0987Z" fill="white"/>
<path d="M78.288 73.5801H79.4618L72.5863 83.6248V90.8619H71.5323V83.6248L64.7047 73.5801H65.9025L72.0833 82.7293L78.288 73.5801Z" fill="white"/>
<path d="M94.8267 82.221C94.8267 83.4796 94.6431 84.6656 94.2757 85.779C93.9084 86.8762 93.3734 87.8363 92.6706 88.6593C91.9839 89.4661 91.1374 90.1035 90.1313 90.5714C89.1251 91.0393 87.9832 91.2733 86.7055 91.2733C85.4278 91.2733 84.2779 91.0393 83.2558 90.5714C82.2496 90.1035 81.3951 89.4661 80.6924 88.6593C80.0057 87.8363 79.4786 86.8762 79.1113 85.779C78.744 84.6656 78.5603 83.4796 78.5603 82.221C78.5603 80.9624 78.744 79.7844 79.1113 78.6872C79.4786 77.5738 80.0057 76.6137 80.6924 75.8069C81.3951 74.984 82.2496 74.3385 83.2558 73.8706C84.2779 73.4026 85.4278 73.1687 86.7055 73.1687C87.9832 73.1687 89.1251 73.4026 90.1313 73.8706C91.1374 74.3385 91.9839 74.984 92.6706 75.8069C93.3734 76.6137 93.9084 77.5738 94.2757 78.6872C94.6431 79.7844 94.8267 80.9624 94.8267 82.221ZM79.6144 82.221C79.6144 83.3344 79.7741 84.3832 80.0935 85.3675C80.4129 86.3518 80.8761 87.2151 81.483 87.9574C82.0899 88.6835 82.8325 89.2644 83.7109 89.7001C84.5893 90.1357 85.5875 90.3536 86.7055 90.3536C87.8235 90.3536 88.8137 90.1357 89.6761 89.7001C90.5545 89.2644 91.2971 88.6835 91.904 87.9574C92.5109 87.2151 92.9741 86.3518 93.2935 85.3675C93.6129 84.3832 93.7726 83.3344 93.7726 82.221C93.7726 81.1076 93.6129 80.0588 93.2935 79.0745C92.9741 78.0902 92.5109 77.2349 91.904 76.5088C91.2971 75.7666 90.5545 75.1776 89.6761 74.7419C88.8137 74.3062 87.8235 74.0884 86.7055 74.0884C85.5875 74.0884 84.5893 74.3062 83.7109 74.7419C82.8325 75.1776 82.0899 75.7666 81.483 76.5088C80.8761 77.2349 80.4129 78.0902 80.0935 79.0745C79.7741 80.0588 79.6144 81.1076 79.6144 82.221Z" fill="white"/>
<path d="M98.1378 73.5801V83.9395C98.1378 84.2783 98.1537 84.6737 98.1857 85.1255C98.2176 85.5773 98.2975 86.0452 98.4252 86.5293C98.553 86.9973 98.7287 87.4652 98.9523 87.9332C99.1918 88.385 99.5113 88.7964 99.9105 89.1676C100.31 89.5226 100.797 89.813 101.372 90.0389C101.963 90.2487 102.674 90.3536 103.504 90.3536C104.558 90.3536 105.436 90.2083 106.139 89.9179C106.858 89.6113 107.433 89.1837 107.864 88.6351C108.311 88.0703 108.631 87.3926 108.822 86.6019C109.014 85.8113 109.11 84.9238 109.11 83.9395V73.5801H110.164V83.9395C110.164 84.9722 110.052 85.9323 109.829 86.8198C109.621 87.7073 109.262 88.4818 108.75 89.1434C108.239 89.8049 107.553 90.3294 106.69 90.7166C105.844 91.0878 104.782 91.2733 103.504 91.2733C102.498 91.2733 101.635 91.1442 100.917 90.8861C100.198 90.6279 99.5991 90.2971 99.12 89.8937C98.6568 89.4742 98.2895 88.9981 98.018 88.4656C97.7465 87.9332 97.5388 87.4007 97.3951 86.8682C97.2514 86.3195 97.1635 85.7951 97.1316 85.2949C97.0996 84.7786 97.0837 84.3267 97.0837 83.9395V73.5801H98.1378Z" fill="white"/>
<path d="M113.179 73.5801H120.318C121.069 73.5801 121.772 73.6608 122.427 73.8222C123.081 73.9674 123.656 74.2175 124.151 74.5725C124.647 74.9113 125.03 75.3632 125.301 75.9279C125.589 76.4927 125.733 77.1946 125.733 78.0337C125.733 79.1955 125.405 80.1798 124.75 80.9866C124.112 81.7772 123.217 82.2694 122.067 82.463V82.5114C122.85 82.6083 123.465 82.818 123.912 83.1407C124.375 83.4635 124.718 83.8588 124.942 84.3268C125.166 84.7947 125.309 85.311 125.373 85.8758C125.437 86.4406 125.469 87.0053 125.469 87.5701C125.469 87.909 125.469 88.2397 125.469 88.5625C125.469 88.8852 125.485 89.1918 125.517 89.4822C125.549 89.7565 125.597 90.0147 125.661 90.2568C125.741 90.4988 125.844 90.7005 125.972 90.8619H124.798C124.575 90.4585 124.447 89.9905 124.415 89.458C124.399 88.9094 124.391 88.3446 124.391 87.7637C124.391 87.1828 124.367 86.61 124.319 86.0452C124.271 85.4643 124.12 84.948 123.864 84.4962C123.608 84.0444 123.201 83.6813 122.642 83.407C122.099 83.1327 121.325 82.9955 120.318 82.9955H114.233V90.8619H113.179V73.5801ZM120.318 82.0758C120.941 82.0758 121.516 82.0032 122.043 81.8579C122.586 81.6966 123.049 81.4545 123.433 81.1318C123.816 80.8091 124.12 80.3976 124.343 79.8974C124.567 79.3972 124.679 78.8001 124.679 78.1063C124.679 77.4608 124.559 76.9122 124.319 76.4604C124.08 75.9925 123.76 75.6133 123.361 75.3228C122.962 75.0324 122.498 74.8226 121.971 74.6935C121.444 74.5644 120.893 74.4999 120.318 74.4999H114.233V82.0758H120.318Z" fill="white"/>
<path d="M134.937 73.5801H145.669V74.4999H135.991V81.4222H144.711V82.342H135.991V90.8619H134.937V73.5801Z" fill="white"/>
<path d="M151.035 73.5801H152.184L158.94 90.8619H157.814L155.658 85.3191H147.465L145.285 90.8619H144.159L151.035 73.5801ZM155.323 84.3994L151.657 74.6209H151.609L147.8 84.3994H155.323Z" fill="white"/>
<path d="M164.137 89.9421H164.185L170.102 73.5801H171.156L164.76 90.8619H163.538L157.165 73.5801H158.268L164.137 89.9421Z" fill="white"/>
<path d="M187.541 82.221C187.541 83.4796 187.357 84.6656 186.99 85.779C186.623 86.8762 186.088 87.8363 185.385 88.6593C184.698 89.4661 183.852 90.1035 182.845 90.5714C181.839 91.0393 180.697 91.2733 179.42 91.2733C178.142 91.2733 176.992 91.0393 175.97 90.5714C174.964 90.1035 174.109 89.4661 173.407 88.6593C172.72 87.8363 172.193 86.8762 171.826 85.779C171.458 84.6656 171.275 83.4796 171.275 82.221C171.275 80.9624 171.458 79.7844 171.826 78.6872C172.193 77.5738 172.72 76.6137 173.407 75.8069C174.109 74.984 174.964 74.3385 175.97 73.8706C176.992 73.4026 178.142 73.1687 179.42 73.1687C180.697 73.1687 181.839 73.4026 182.845 73.8706C183.852 74.3385 184.698 74.984 185.385 75.8069C186.088 76.6137 186.623 77.5738 186.99 78.6872C187.357 79.7844 187.541 80.9624 187.541 82.221ZM172.329 82.221C172.329 83.3344 172.488 84.3832 172.808 85.3675C173.127 86.3518 173.59 87.2151 174.197 87.9574C174.804 88.6835 175.547 89.2644 176.425 89.7001C177.304 90.1357 178.302 90.3536 179.42 90.3536C180.538 90.3536 181.528 90.1357 182.39 89.7001C183.269 89.2644 184.011 88.6835 184.618 87.9574C185.225 87.2151 185.688 86.3518 186.008 85.3675C186.327 84.3832 186.487 83.3344 186.487 82.221C186.487 81.1076 186.327 80.0588 186.008 79.0745C185.688 78.0902 185.225 77.2349 184.618 76.5088C184.011 75.7666 183.269 75.1776 182.39 74.7419C181.528 74.3062 180.538 74.0884 179.42 74.0884C178.302 74.0884 177.304 74.3062 176.425 74.7419C175.547 75.1776 174.804 75.7666 174.197 76.5088C173.59 77.2349 173.127 78.0902 172.808 79.0745C172.488 80.0588 172.329 81.1076 172.329 82.221Z" fill="white"/>
<path d="M189.798 73.5801H196.937C197.688 73.5801 198.39 73.6608 199.045 73.8222C199.7 73.9674 200.275 74.2175 200.77 74.5725C201.265 74.9113 201.648 75.3632 201.92 75.9279C202.207 76.4927 202.351 77.1946 202.351 78.0337C202.351 79.1955 202.024 80.1798 201.369 80.9866C200.73 81.7772 199.836 82.2694 198.686 82.463V82.5114C199.468 82.6083 200.083 82.818 200.53 83.1407C200.994 83.4635 201.337 83.8588 201.561 84.3268C201.784 84.7947 201.928 85.311 201.992 85.8758C202.056 86.4406 202.088 87.0053 202.088 87.5701C202.088 87.909 202.088 88.2397 202.088 88.5625C202.088 88.8852 202.104 89.1918 202.135 89.4822C202.167 89.7565 202.215 90.0147 202.279 90.2568C202.359 90.4988 202.463 90.7005 202.591 90.8619H201.417C201.193 90.4585 201.065 89.9905 201.033 89.458C201.018 88.9094 201.01 88.3446 201.01 87.7637C201.01 87.1828 200.986 86.61 200.938 86.0452C200.89 85.4643 200.738 84.948 200.482 84.4962C200.227 84.0444 199.82 83.6813 199.261 83.407C198.718 83.1327 197.943 82.9955 196.937 82.9955H190.852V90.8619H189.798V73.5801ZM196.937 82.0758C197.56 82.0758 198.135 82.0032 198.662 81.8579C199.205 81.6966 199.668 81.4545 200.051 81.1318C200.435 80.8091 200.738 80.3976 200.962 79.8974C201.185 79.3972 201.297 78.8001 201.297 78.1063C201.297 77.4608 201.177 76.9122 200.938 76.4604C200.698 75.9925 200.379 75.6133 199.979 75.3228C199.58 75.0324 199.117 74.8226 198.59 74.6935C198.063 74.5644 197.512 74.4999 196.937 74.4999H190.852V82.0758H196.937Z" fill="white"/>
<path d="M204.888 73.5801H205.942V90.8619H204.888V73.5801Z" fill="white"/>
<path d="M207.114 74.4999V73.5801H220.218V74.4999H214.181V90.8619H213.127V74.4999H207.114Z" fill="white"/>
<path d="M221.381 73.5801H232.88V74.4999H222.435V81.4222H232.257V82.342H222.435V89.9421H233V90.8619H221.381V73.5801Z" fill="white"/>
<path d="M61.7675 106.526V120.613H65.5286V106.526H70.6553V103.331H56.6408V106.526H61.7675Z" fill="white"/>
<path d="M80.5811 120.613L86.2588 103.331H82.3779L78.5209 115.481H78.473L74.6639 103.331H70.8069L76.3409 120.613H80.5811Z" fill="white"/>
<path d="M96.9483 114.876H93.3069C93.2909 115.941 93.4826 116.861 93.8818 117.636C94.2811 118.41 94.8161 119.048 95.4869 119.548C96.1737 120.048 96.9563 120.411 97.8347 120.637C98.729 120.879 99.6474 121 100.59 121C101.756 121 102.778 120.863 103.656 120.589C104.55 120.314 105.293 119.935 105.884 119.451C106.491 118.951 106.946 118.362 107.25 117.684C107.553 117.006 107.705 116.272 107.705 115.481C107.705 114.513 107.497 113.723 107.082 113.109C106.683 112.48 106.203 111.98 105.644 111.609C105.085 111.238 104.519 110.971 103.944 110.81C103.385 110.633 102.945 110.512 102.626 110.447C101.556 110.173 100.685 109.947 100.015 109.769C99.3599 109.592 98.8408 109.414 98.4575 109.237C98.0902 109.059 97.8426 108.866 97.7149 108.656C97.5871 108.446 97.5232 108.172 97.5232 107.833C97.5232 107.462 97.6031 107.155 97.7628 106.913C97.9225 106.671 98.1221 106.469 98.3617 106.308C98.6172 106.147 98.8967 106.034 99.2002 105.969C99.5036 105.905 99.8071 105.872 100.111 105.872C100.574 105.872 100.997 105.913 101.38 105.993C101.779 106.074 102.131 106.211 102.434 106.405C102.738 106.599 102.977 106.865 103.153 107.204C103.345 107.543 103.456 107.97 103.488 108.486H107.13C107.13 107.486 106.938 106.639 106.555 105.945C106.187 105.235 105.684 104.654 105.046 104.202C104.407 103.751 103.672 103.428 102.842 103.234C102.027 103.024 101.173 102.92 100.278 102.92C99.5116 102.92 98.745 103.024 97.9784 103.234C97.2118 103.444 96.525 103.767 95.9181 104.202C95.3112 104.638 94.8161 105.187 94.4328 105.848C94.0655 106.494 93.8818 107.26 93.8818 108.148C93.8818 108.938 94.0256 109.616 94.313 110.181C94.6165 110.729 95.0078 111.189 95.4869 111.56C95.966 111.932 96.5091 112.238 97.116 112.48C97.7229 112.706 98.3457 112.9 98.9846 113.061C99.6074 113.239 100.222 113.4 100.829 113.545C101.436 113.69 101.979 113.86 102.458 114.053C102.937 114.247 103.321 114.489 103.608 114.78C103.912 115.07 104.063 115.449 104.063 115.917C104.063 116.353 103.952 116.716 103.728 117.006C103.504 117.281 103.225 117.498 102.889 117.66C102.554 117.821 102.195 117.934 101.811 117.999C101.428 118.047 101.069 118.071 100.733 118.071C100.238 118.071 99.7592 118.015 99.296 117.902C98.8328 117.773 98.4256 117.587 98.0742 117.345C97.7388 117.087 97.4673 116.756 97.2597 116.353C97.0521 115.949 96.9483 115.457 96.9483 114.876Z" fill="white"/>
<path d="M109.943 103.331V120.613H113.704V113.158H120.627V120.613H124.388V103.331H120.627V109.963H113.704V103.331H109.943Z" fill="white"/>
<path d="M130.718 112.044C130.718 111.286 130.798 110.552 130.957 109.842C131.133 109.132 131.405 108.503 131.772 107.954C132.139 107.389 132.618 106.945 133.209 106.623C133.8 106.284 134.519 106.114 135.365 106.114C136.212 106.114 136.931 106.284 137.521 106.623C138.112 106.945 138.592 107.389 138.959 107.954C139.326 108.503 139.59 109.132 139.749 109.842C139.925 110.552 140.013 111.286 140.013 112.044C140.013 112.771 139.925 113.481 139.749 114.174C139.59 114.852 139.326 115.465 138.959 116.014C138.592 116.563 138.112 117.006 137.521 117.345C136.931 117.668 136.212 117.829 135.365 117.829C134.519 117.829 133.8 117.668 133.209 117.345C132.618 117.006 132.139 116.563 131.772 116.014C131.405 115.465 131.133 114.852 130.957 114.174C130.798 113.481 130.718 112.771 130.718 112.044ZM126.957 112.044C126.957 113.303 127.148 114.481 127.532 115.578C127.915 116.659 128.466 117.603 129.185 118.41C129.903 119.217 130.782 119.854 131.82 120.322C132.874 120.774 134.056 121 135.365 121C136.691 121 137.873 120.774 138.911 120.322C139.949 119.854 140.827 119.217 141.546 118.41C142.265 117.603 142.816 116.659 143.199 115.578C143.582 114.481 143.774 113.303 143.774 112.044C143.774 110.754 143.582 109.56 143.199 108.462C142.816 107.349 142.265 106.381 141.546 105.558C140.827 104.735 139.949 104.089 138.911 103.621C137.873 103.154 136.691 102.92 135.365 102.92C134.056 102.92 132.874 103.154 131.82 103.621C130.782 104.089 129.903 104.735 129.185 105.558C128.466 106.381 127.915 107.349 127.532 108.462C127.148 109.56 126.957 110.754 126.957 112.044Z" fill="white"/>
<path d="M162.636 120.613L167.235 103.331H163.546L160.743 115.239H160.695L157.772 103.331H154.251L151.28 115.094H151.232L148.525 103.331H144.764L149.292 120.613H153.101L155.952 108.85H156L158.898 120.613H162.636Z" fill="white"/>
<path d="M171.531 114.876H167.89C167.874 115.941 168.066 116.861 168.465 117.636C168.864 118.41 169.399 119.048 170.07 119.548C170.757 120.048 171.539 120.411 172.418 120.637C173.312 120.879 174.231 121 175.173 121C176.339 121 177.361 120.863 178.239 120.589C179.134 120.314 179.876 119.935 180.467 119.451C181.074 118.951 181.529 118.362 181.833 117.684C182.136 117.006 182.288 116.272 182.288 115.481C182.288 114.513 182.08 113.723 181.665 113.109C181.266 112.48 180.787 111.98 180.228 111.609C179.669 111.238 179.102 110.971 178.527 110.81C177.968 110.633 177.529 110.512 177.209 110.447C176.139 110.173 175.269 109.947 174.598 109.769C173.943 109.592 173.424 109.414 173.041 109.237C172.673 109.059 172.426 108.866 172.298 108.656C172.17 108.446 172.106 108.172 172.106 107.833C172.106 107.462 172.186 107.155 172.346 106.913C172.506 106.671 172.705 106.469 172.945 106.308C173.2 106.147 173.48 106.034 173.783 105.969C174.087 105.905 174.39 105.872 174.694 105.872C175.157 105.872 175.58 105.913 175.963 105.993C176.363 106.074 176.714 106.211 177.017 106.405C177.321 106.599 177.56 106.865 177.736 107.204C177.928 107.543 178.04 107.97 178.072 108.486H181.713C181.713 107.486 181.521 106.639 181.138 105.945C180.771 105.235 180.268 104.654 179.629 104.202C178.99 103.751 178.255 103.428 177.425 103.234C176.61 103.024 175.756 102.92 174.861 102.92C174.095 102.92 173.328 103.024 172.562 103.234C171.795 103.444 171.108 103.767 170.501 104.202C169.894 104.638 169.399 105.187 169.016 105.848C168.649 106.494 168.465 107.26 168.465 108.148C168.465 108.938 168.609 109.616 168.896 110.181C169.2 110.729 169.591 111.189 170.07 111.56C170.549 111.932 171.092 112.238 171.699 112.48C172.306 112.706 172.929 112.9 173.568 113.061C174.191 113.239 174.805 113.4 175.412 113.545C176.019 113.69 176.562 113.86 177.041 114.053C177.521 114.247 177.904 114.489 178.191 114.78C178.495 115.07 178.646 115.449 178.646 115.917C178.646 116.353 178.535 116.716 178.311 117.006C178.087 117.281 177.808 117.498 177.473 117.66C177.137 117.821 176.778 117.934 176.395 117.999C176.011 118.047 175.652 118.071 175.317 118.071C174.821 118.071 174.342 118.015 173.879 117.902C173.416 117.773 173.009 117.587 172.657 117.345C172.322 117.087 172.05 116.756 171.843 116.353C171.635 115.949 171.531 115.457 171.531 114.876Z" fill="white"/>
</svg>
