<svg width="22" height="22" viewBox="0 0 22 22" fill="none" xmlns="http://www.w3.org/2000/svg">
<g clip-path="url(#clip0_82_2041)">
<path d="M21.4856 11.206C21.4856 10.3047 21.4125 9.64693 21.2542 8.96484H10.9619V13.033H17.0033C16.8815 14.044 16.2238 15.5665 14.7621 16.5896L14.7416 16.7258L17.9959 19.2468L18.2213 19.2693C20.2919 17.357 21.4856 14.5434 21.4856 11.206Z" fill="#4285F4"/>
<path d="M10.9619 21.924C13.9216 21.924 16.4064 20.9495 18.2213 19.2687L14.7621 16.589C13.8364 17.2346 12.594 17.6852 10.9619 17.6852C8.06301 17.6852 5.60262 15.773 4.72556 13.1299L4.597 13.1408L1.2132 15.7596L1.16895 15.8826C2.9716 19.4635 6.6744 21.924 10.9619 21.924Z" fill="#34A853"/>
<path d="M4.72589 13.1306C4.49447 12.4485 4.36053 11.7176 4.36053 10.9625C4.36053 10.2072 4.49447 9.47646 4.71371 8.79437L4.70758 8.64911L1.28137 5.98828L1.16927 6.0416C0.426313 7.52761 0 9.19634 0 10.9625C0 12.7286 0.426313 14.3972 1.16927 15.8832L4.72589 13.1306Z" fill="#FBBC05"/>
<path d="M10.9619 4.23869C13.0203 4.23869 14.4088 5.12785 15.2006 5.87089L18.2943 2.85018C16.3943 1.08405 13.9216 0 10.9619 0C6.6744 0 2.9716 2.46039 1.16895 6.04135L4.71338 8.79412C5.60262 6.15102 8.06301 4.23869 10.9619 4.23869Z" fill="#EB4335"/>
</g>
<defs>
<clipPath id="clip0_82_2041">
<rect width="21.4962" height="22" fill="white"/>
</clipPath>
</defs>
</svg>
