<svg width="110" height="82" viewBox="0 0 110 82" fill="none" xmlns="http://www.w3.org/2000/svg">
<path fill-rule="evenodd" clip-rule="evenodd" d="M48.4296 81.9703C34.7256 78.7807 24.6777 68.3481 24.6777 55.9705C24.6777 41.0573 39.2636 28.9678 57.2563 28.9678C75.2489 28.9678 89.8349 41.0573 89.8349 55.9705C89.8349 67.8272 80.615 77.899 67.7936 81.5295V55.9335C67.7936 54.829 66.8981 53.9335 65.7936 53.9335H50.4296C49.325 53.9335 48.4296 54.829 48.4296 55.9335V81.9703Z" fill="#050505"/>
<mask id="mask0_442_187" style="mask-type:luminance" maskUnits="userSpaceOnUse" x="0" y="0" width="110" height="48">
<path d="M0.296878 0.282963L0.296875 47.9307L109.288 47.9307L109.288 0.282967L0.296878 0.282963Z" fill="white"/>
</mask>
<g mask="url(#mask0_442_187)">
<path d="M10.6298 55.0709C10.6298 74.8758 31.3517 90.9309 56.9135 90.9309C82.4753 90.9309 103.197 74.8758 103.197 55.0709C103.197 35.2661 82.4753 4.03125 56.9135 4.03125C31.3517 4.03125 10.6298 35.2661 10.6298 55.0709Z" fill="#050505"/>
</g>
</svg>
