<svg width="34" height="27" viewBox="0 0 34 27" fill="none" xmlns="http://www.w3.org/2000/svg">
<mask id="mask0_442_4303" style="mask-type:luminance" maskUnits="userSpaceOnUse" x="19" y="0" width="15" height="27">
<path d="M19.479 26.3746H33.4219V0.809963H19.479L19.479 26.3746Z" fill="white"/>
</mask>
<g mask="url(#mask0_442_4303)">
<path d="M35.5106 23.9511C41.306 23.9511 46.0041 19.0906 46.0041 13.0949C46.0041 7.09923 41.306 2.23877 35.5106 2.23877C29.7152 2.23877 25.0171 7.09923 25.0171 13.0949C25.0171 19.0906 29.7152 23.9511 35.5106 23.9511Z" fill="#050505"/>
</g>
<mask id="mask1_442_4303" style="mask-type:luminance" maskUnits="userSpaceOnUse" x="9" y="0" width="15" height="27">
<path d="M9.18871 26.3746H23.1316L23.1316 0.809963H9.18871L9.18871 26.3746Z" fill="white"/>
</mask>
<g mask="url(#mask1_442_4303)">
<path d="M28.9386 23.9252C34.7339 23.9252 39.432 19.0647 39.432 13.069C39.432 7.07335 34.7339 2.21289 28.9386 2.21289C23.1432 2.21289 18.4451 7.07335 18.4451 13.069C18.4451 19.0647 23.1432 23.9252 28.9386 23.9252Z" fill="#050505"/>
</g>
<mask id="mask2_442_4303" style="mask-type:luminance" maskUnits="userSpaceOnUse" x="0" y="0" width="15" height="27">
<path d="M0.612778 26.3748H14.5557L14.5557 0.810087H0.612778L0.612778 26.3748Z" fill="white"/>
</mask>
<g mask="url(#mask2_442_4303)">
<path d="M23.6319 23.8275C29.4273 23.8275 34.1254 18.9671 34.1254 12.9714C34.1254 6.9757 29.4273 2.11523 23.6319 2.11523C17.8365 2.11523 13.1384 6.9757 13.1384 12.9714C13.1384 18.9671 17.8365 23.8275 23.6319 23.8275Z" fill="#050505"/>
</g>
</svg>
