<svg width="20" height="33" viewBox="0 0 20 33" fill="none" xmlns="http://www.w3.org/2000/svg">
<mask id="mask0_442_4406" style="mask-type:luminance" maskUnits="userSpaceOnUse" x="0" y="10" width="20" height="23">
<path d="M0.119628 10.7953L0.119629 32.7173L19.834 32.7173L19.834 10.7953L0.119628 10.7953Z" fill="white"/>
</mask>
<g mask="url(#mask0_442_4406)">
<path d="M18.683 30.903C18.683 21.791 14.9913 16.2558 10.3677 16.2558C5.74413 16.2558 1.84644 22.0787 1.84644 31.1906C1.84644 31.1906 5.71306 32.6289 10.3367 32.6289C14.9603 32.6289 18.683 30.903 18.683 30.903Z" fill="#050505"/>
</g>
<path d="M9.80087 10.4798C12.503 10.4798 14.6935 8.29041 14.6935 5.58968C14.6935 2.88896 12.503 0.699585 9.80087 0.699585C7.09873 0.699585 4.9082 2.88896 4.9082 5.58968C4.9082 8.29041 7.09873 10.4798 9.80087 10.4798Z" fill="#050505"/>
</svg>
