<svg width="53" height="32" viewBox="0 0 53 32" fill="none" xmlns="http://www.w3.org/2000/svg">
<path d="M12.7665 11.1936C12.7665 8.90221 17.053 8.38825 20.5465 8.38825C24.0614 8.38825 27.0405 8.92363 28.3264 11.1936H40.0929C39.0213 2.19925 30.6412 1.06425 20.5465 1C10.4303 1 1.00003 2.9702 1.00003 11.1936C0.978598 18.3892 12.2735 18.9459 20.3107 19.3528C24.833 19.567 28.3264 19.7597 28.3264 21.0232C28.3264 23.2504 24.04 23.8286 20.5465 23.8286C17.0315 23.8286 14.0524 23.2504 12.7665 21.0232H1.00003C2.07165 29.9534 10.4518 31.174 20.5465 31.1954C30.6626 31.1954 40.0929 29.2467 40.0929 21.0232C40.1143 13.8063 28.8194 13.2495 20.7822 12.8426C16.26 12.6285 12.7665 12.4571 12.7665 11.1936Z" fill="white"/>
<path d="M12.7665 30.776L28.3264 11.1936H40.0929L53 31.2411L12.7665 30.776Z" fill="#1045FF"/>
<path d="M12.7665 11.1936C12.7665 8.90221 17.053 8.38825 20.5465 8.38825C24.0614 8.38825 27.0405 8.92363 28.3264 11.1936H40.0929C39.0213 2.19925 30.6412 1.06425 20.5465 1C10.4303 1 1.00003 2.9702 1.00003 11.1936C0.978598 18.3892 12.2735 18.9459 20.3107 19.3528C24.833 19.567 28.3264 19.7597 28.3264 21.0232C28.3264 23.2504 24.04 23.8286 20.5465 23.8286C17.0315 23.8286 14.0524 23.2504 12.7665 21.0232H1.00003C2.07165 29.9534 10.4518 31.174 20.5465 31.1954C30.6626 31.1954 40.0929 29.2467 40.0929 21.0232C40.1143 13.8063 28.8194 13.2495 20.7822 12.8426C16.26 12.6285 12.7665 12.4571 12.7665 11.1936Z" fill="white"/>
<path d="M40.0692 21.0538C40.0747 19.2169 39.3618 17.8004 38.1646 16.7076C36.9707 15.6178 35.2983 14.8522 33.3844 14.3033C29.5755 13.2108 24.7727 12.9665 20.7811 12.7635L20.7247 12.7607L20.7244 12.7606C18.4682 12.6533 16.477 12.5569 15.0497 12.3301C14.3351 12.2166 13.7712 12.0717 13.3883 11.8812C13.0045 11.6904 12.8292 11.4687 12.8292 11.2091C12.8292 10.6715 13.0776 10.2356 13.5145 9.8794C13.9542 9.52089 14.5821 9.2461 15.3277 9.04005C16.818 8.62813 18.7461 8.49943 20.4846 8.49943C22.2331 8.49943 23.8395 8.63343 25.1658 9.04716C26.4902 9.46034 27.5281 10.1501 28.1529 11.2582L28.1816 11.3091H28.24H39.9692H40.0818L40.0685 11.1973C39.7996 8.92983 39.0714 7.15155 37.9675 5.76054C36.8639 4.36984 35.3896 3.3721 33.6376 2.65806C30.138 1.23174 25.516 0.932169 20.4853 0.900002V0.9H20.4846C15.4393 0.9 10.5516 1.39312 6.92192 2.92394C5.10587 3.68985 3.59965 4.71763 2.54732 6.0782C1.49395 7.44012 0.900059 9.12954 0.90003 11.2089M40.0692 21.0538L39.9692 21.0535M40.0692 21.0538C40.0692 21.0537 40.0692 21.0536 40.0692 21.0535H39.9692M40.0692 21.0538C40.0692 23.1331 39.4753 24.8212 38.4219 26.1811C37.3695 27.5397 35.8633 28.5648 34.0472 29.328C30.4176 30.8534 25.5299 31.3411 20.4846 31.3411H20.4844C15.4532 31.3304 10.8312 31.0201 7.33146 29.5857C5.57952 28.8676 4.10531 27.8665 3.00179 26.4776C1.898 25.0884 1.16965 23.3169 0.900736 21.0654L0.887376 20.9535H1.00003H12.7292H12.7871L12.816 21.0037C13.4407 22.0908 14.479 22.7808 15.8038 23.1994C17.1302 23.6185 18.7367 23.7632 20.4846 23.7632C22.2224 23.7632 24.1506 23.6185 25.6411 23.1985C26.3868 22.9885 27.0151 22.7116 27.4551 22.3558C27.8925 22.002 28.14 21.5741 28.14 21.0535C28.14 20.7937 27.9645 20.5707 27.5806 20.3778C27.1976 20.1854 26.6337 20.0379 25.9192 19.9217C24.492 19.6895 22.5009 19.5878 20.2449 19.4805L20.2445 19.4805L20.188 19.4776C16.1964 19.2746 11.3937 19.0303 7.5849 17.9406C5.67106 17.393 3.99867 16.6294 2.8048 15.5427C1.6076 14.4529 0.894639 13.0405 0.90003 11.2089M39.9692 21.0535C39.9692 29.2894 30.5688 31.2411 20.4846 31.2411M39.9692 21.0535C39.9906 13.8406 28.778 13.2704 20.7695 12.8631L20.7196 12.8605C16.2117 12.6461 12.7292 12.4745 12.7292 11.2091C12.7292 8.91417 17.0022 8.39943 20.4846 8.39943C23.9884 8.39943 26.9581 8.93562 28.24 11.2091L20.4846 31.2411M0.90003 11.2089C0.900031 11.2089 0.900031 11.2088 0.900031 11.2088L1.00003 11.2091H0.90003C0.90003 11.209 0.90003 11.209 0.90003 11.2089ZM20.4846 31.2411C10.4595 31.2198 2.13076 30.0063 1.01232 21.1535H1.00003L20.4846 31.2411Z" fill="white" stroke="black" stroke-width="0.2"/>
</svg>
