<svg width="39" height="21" viewBox="0 0 39 21" fill="none" xmlns="http://www.w3.org/2000/svg">
<path d="M8.82485 7.07442C8.82485 5.53289 12.0397 5.18713 14.6598 5.18713C17.296 5.18713 19.5304 5.5473 20.4948 7.07442H29.3197C28.5159 1.02358 22.2309 0.260017 14.6598 0.216797C7.07274 0.216797 2.28422e-05 1.54222 2.28422e-05 7.07442C-0.0160515 11.9151 8.45514 12.2897 14.483 12.5634C17.8747 12.7075 20.4948 12.8371 20.4948 13.6871C20.4948 15.1854 17.28 15.5744 14.6598 15.5744C12.0236 15.5744 9.78931 15.1854 8.82485 13.6871H2.28422e-05C0.803741 19.6947 7.08882 20.5159 14.6598 20.5303C22.2469 20.5303 29.3197 19.2193 29.3197 13.6871C29.3357 8.83203 20.8645 8.45746 14.8367 8.18373C11.445 8.03966 8.82485 7.92441 8.82485 7.07442Z" fill="black"/>
<path d="M8.82485 7.07442C8.82485 5.53289 12.0397 5.18713 14.6598 5.18713C17.296 5.18713 19.5304 5.5473 20.4948 7.07442H29.3197C28.5159 1.02358 22.2309 0.260017 14.6598 0.216797C7.07274 0.216797 2.28422e-05 1.54222 2.28422e-05 7.07442C-0.0160515 11.9151 8.45514 12.2897 14.483 12.5634C17.8747 12.7075 20.4948 12.8371 20.4948 13.6871C20.4948 15.1854 17.28 15.5744 14.6598 15.5744C12.0236 15.5744 9.78931 15.1854 8.82485 13.6871H2.28422e-05C0.803741 19.6947 7.08882 20.5159 14.6598 20.5303C22.2469 20.5303 29.3197 19.2193 29.3197 13.6871C29.3357 8.83203 20.8645 8.45746 14.8367 8.18373C11.445 8.03966 8.82485 7.92441 8.82485 7.07442Z" fill="white"/>
</svg>
