<svg width="425" height="248" viewBox="0 0 425 248" fill="none" xmlns="http://www.w3.org/2000/svg">
<path d="M97.7157 83.9213C97.7157 65.2815 132.585 61.1006 161.003 61.1006C189.595 61.1006 213.829 65.4557 224.29 83.9213H320.006C311.288 10.7554 243.119 1.52261 161.003 1C78.7121 1 2.00025 17.0268 2.00025 83.9213C1.8259 142.454 93.7057 146.983 159.085 150.293C195.872 152.035 224.29 153.603 224.29 163.881C224.29 181.998 189.421 186.702 161.003 186.702C132.41 186.702 108.176 181.998 97.7157 163.881H2.00025C10.7175 236.525 78.8864 246.454 161.003 246.628C243.294 246.628 320.006 230.776 320.006 163.881C320.18 105.174 228.3 100.645 162.921 97.3351C126.134 95.5931 97.7157 94.1994 97.7157 83.9213Z" fill="white"/>
<path d="M97.7157 243.217L224.29 83.9213H320.006L425 247L97.7157 243.217Z" fill="#1045FF"/>
<path d="M97.7157 83.9213C97.7157 65.2815 132.585 61.1006 161.003 61.1006C189.595 61.1006 213.829 65.4557 224.29 83.9213H320.006C311.288 10.7554 243.119 1.52261 161.003 1C78.7121 1 2.00025 17.0268 2.00025 83.9213C1.8259 142.454 93.7057 146.983 159.085 150.293C195.872 152.035 224.29 153.603 224.29 163.881C224.29 181.998 189.421 186.702 161.003 186.702C132.41 186.702 108.176 181.998 97.7157 163.881H2.00025C10.7175 236.525 78.8864 246.454 161.003 246.628C243.294 246.628 320.006 230.776 320.006 163.881C320.18 105.174 228.3 100.645 162.921 97.3351C126.134 95.5931 97.7157 94.1994 97.7157 83.9213Z" fill="white"/>
<path d="M223.152 84.2924L223.295 84.5468H223.587H319H319.563L319.496 83.9879C317.315 65.5915 311.409 51.183 302.471 39.92C293.534 28.6585 281.59 20.5709 267.376 14.7779C238.97 3.20078 201.428 0.761691 160.503 0.50001V0.5H160.5C119.468 0.5 79.7607 4.5119 50.2944 16.9393C35.5551 23.1555 23.3529 31.4879 14.8348 42.501C6.3115 53.5209 1.50039 67.1951 1.50025 84.0461C1.45655 98.8515 7.21463 110.258 16.8923 119.068C26.5534 127.862 40.1056 134.055 55.6518 138.504C86.6003 147.359 125.64 149.344 158.123 150.996L158.563 151.019L158.565 151.019C176.91 151.891 193.127 152.719 204.759 154.611C210.579 155.558 215.205 156.764 218.363 158.351C221.527 159.94 223.087 161.837 223.087 164.128C223.087 168.478 221.013 172.043 217.399 174.965C213.773 177.897 208.616 180.164 202.531 181.878C190.365 185.306 174.647 186.483 160.5 186.483C146.269 186.483 133.163 185.306 122.329 181.883C111.502 178.462 102.979 172.81 97.8464 163.879L97.7023 163.628H97.4129H2.00025H1.43697L1.50378 164.187C3.68549 182.453 9.59165 196.807 18.5292 208.056C27.4654 219.303 39.4093 227.418 53.6228 233.243C82.0292 244.887 119.571 247.413 160.499 247.5H160.5C201.531 247.5 241.239 243.532 270.705 231.148C285.444 224.954 297.647 216.643 306.165 205.646C314.688 194.643 319.499 180.98 319.5 164.129C319.544 149.28 313.786 137.841 304.108 129.007C294.447 120.188 280.895 113.977 265.349 109.518C234.399 100.641 195.359 98.6559 162.875 97.0038L162.437 96.9815L162.435 96.9814C144.089 96.1085 127.872 95.3243 116.239 93.4759C110.419 92.551 105.793 91.3662 102.635 89.7955C99.4715 88.2223 97.9129 86.3366 97.9129 84.0468C97.9129 79.5605 99.9919 75.9314 103.603 72.9876C107.227 70.0321 112.382 67.7821 118.467 66.1005C130.631 62.7384 146.349 61.6915 160.5 61.6915C174.734 61.6915 187.839 62.7817 198.673 66.1614C209.497 69.5382 218.018 75.1887 223.152 84.2924Z" fill="white" stroke="black"/>
</svg>
