<svg width="59" height="31" viewBox="0 0 59 31" fill="none" xmlns="http://www.w3.org/2000/svg">
<path d="M13.3504 10.3743C13.3504 8.0423 18.2139 7.51922 22.1777 7.51922C26.1658 7.51922 29.546 8.06409 31.005 10.3743H44.3554C43.1395 1.22052 33.6313 0.0653845 22.1777 0C10.6998 0 3.45561e-05 2.00513 3.45561e-05 10.3743C-0.0242831 17.6974 12.7911 18.2641 21.9102 18.6782C27.0412 18.8961 31.005 19.0923 31.005 20.3782C31.005 22.6448 26.1415 23.2333 22.1777 23.2333C18.1896 23.2333 14.8095 22.6448 13.3504 20.3782H3.45561e-05C1.21592 29.4666 10.7241 30.7089 22.1777 30.7307C33.6556 30.7307 44.3554 28.7474 44.3554 20.3782C44.3797 13.0333 31.5643 12.4666 22.4452 12.0525C17.3142 11.8346 13.3504 11.6602 13.3504 10.3743Z" fill="black"/>
<path d="M13.3477 30.7772L31.0553 10.4431H44.3359L59 30.7772H13.3477Z" fill="#1045FF"/>
<path d="M13.3504 10.3743C13.3504 8.0423 18.2139 7.51922 22.1777 7.51922C26.1658 7.51922 29.546 8.06409 31.005 10.3743H44.3554C43.1395 1.22052 33.6313 0.0653845 22.1777 0C10.6998 0 3.45561e-05 2.00513 3.45561e-05 10.3743C-0.0242831 17.6974 12.7911 18.2641 21.9102 18.6782C27.0412 18.8961 31.005 19.0923 31.005 20.3782C31.005 22.6448 26.1415 23.2333 22.1777 23.2333C18.1896 23.2333 14.8095 22.6448 13.3504 20.3782H3.45561e-05C1.21592 29.4666 10.7241 30.7089 22.1777 30.7307C33.6556 30.7307 44.3554 28.7474 44.3554 20.3782C44.3797 13.0333 31.5643 12.4666 22.4452 12.0525C17.3142 11.8346 13.3504 11.6602 13.3504 10.3743Z" fill="white"/>
</svg>
