<svg width="23" height="23" viewBox="0 0 23 23" fill="none" xmlns="http://www.w3.org/2000/svg">
<path d="M6.25 11.8C5.90278 11.8 5.60778 11.6735 5.365 11.4204C5.12167 11.1679 5 10.8611 5 10.5C5 10.1389 5.12167 9.83209 5.365 9.5796C5.60778 9.32653 5.90278 9.2 6.25 9.2C6.59722 9.2 6.89222 9.32653 7.135 9.5796C7.37833 9.83209 7.5 10.1389 7.5 10.5C7.5 10.8611 7.37833 11.1679 7.135 11.4204C6.89222 11.6735 6.59722 11.8 6.25 11.8ZM6.25 6.6C5.90278 6.6 5.60778 6.47347 5.365 6.2204C5.12167 5.96791 5 5.66111 5 5.3C5 4.93889 5.12167 4.63209 5.365 4.3796C5.60778 4.12653 5.90278 4 6.25 4C6.59722 4 6.89222 4.12653 7.135 4.3796C7.37833 4.63209 7.5 4.93889 7.5 5.3C7.5 5.66111 7.37833 5.96791 7.135 6.2204C6.89222 6.47347 6.59722 6.6 6.25 6.6ZM6.25 17C5.90278 17 5.60778 16.8735 5.365 16.6204C5.12167 16.3679 5 16.0611 5 15.7C5 15.3389 5.12167 15.0321 5.365 14.7796C5.60778 14.5265 5.90278 14.4 6.25 14.4C6.59722 14.4 6.89222 14.5265 7.135 14.7796C7.37833 15.0321 7.5 15.3389 7.5 15.7C7.5 16.0611 7.37833 16.3679 7.135 16.6204C6.89222 16.8735 6.59722 17 6.25 17ZM10 16.5667C9.76389 16.5667 9.56611 16.4835 9.40667 16.3171C9.24667 16.1512 9.16667 15.9456 9.16667 15.7C9.16667 15.4544 9.24667 15.2488 9.40667 15.0829C9.56611 14.9165 9.76389 14.8333 10 14.8333H19.1667C19.4028 14.8333 19.6006 14.9165 19.76 15.0829C19.92 15.2488 20 15.4544 20 15.7C20 15.9456 19.92 16.1512 19.76 16.3171C19.6006 16.4835 19.4028 16.5667 19.1667 16.5667H10ZM10 11.3667C9.76389 11.3667 9.56611 11.2835 9.40667 11.1171C9.24667 10.9512 9.16667 10.7456 9.16667 10.5C9.16667 10.2544 9.24667 10.0485 9.40667 9.88207C9.56611 9.71624 9.76389 9.63333 10 9.63333H19.1667C19.4028 9.63333 19.6006 9.71624 19.76 9.88207C19.92 10.0485 20 10.2544 20 10.5C20 10.7456 19.92 10.9512 19.76 11.1171C19.6006 11.2835 19.4028 11.3667 19.1667 11.3667H10ZM10 6.16667C9.76389 6.16667 9.56611 6.08376 9.40667 5.91793C9.24667 5.75153 9.16667 5.54556 9.16667 5.3C9.16667 5.05444 9.24667 4.84847 9.40667 4.68207C9.56611 4.51624 9.76389 4.43333 10 4.43333H19.1667C19.4028 4.43333 19.6006 4.51624 19.76 4.68207C19.92 4.84847 20 5.05444 20 5.3C20 5.54556 19.92 5.75153 19.76 5.91793C19.6006 6.08376 19.4028 6.16667 19.1667 6.16667H10Z" fill="white"/>
</svg>
