<svg width="15" height="15" viewBox="0 0 15 15" fill="none" xmlns="http://www.w3.org/2000/svg">
<path d="M4.25 5.66667H1.41667C1.02708 5.66667 0.693694 5.52783 0.4165 5.25017C0.138833 4.97297 0 4.63958 0 4.25V1.41667C0 1.02708 0.138833 0.693458 0.4165 0.415792C0.693694 0.138597 1.02708 0 1.41667 0H4.25C4.63958 0 4.97321 0.138597 5.25087 0.415792C5.52807 0.693458 5.66667 1.02708 5.66667 1.41667V4.25C5.66667 4.63958 5.52807 4.97297 5.25087 5.25017C4.97321 5.52783 4.63958 5.66667 4.25 5.66667ZM1.41667 4.25H4.25V1.41667H1.41667V4.25ZM4.25 14.1667H1.41667C1.02708 14.1667 0.693694 14.0281 0.4165 13.7509C0.138833 13.4732 0 13.1396 0 12.75V9.91667C0 9.52708 0.138833 9.19346 0.4165 8.91579C0.693694 8.6386 1.02708 8.5 1.41667 8.5H4.25C4.63958 8.5 4.97321 8.6386 5.25087 8.91579C5.52807 9.19346 5.66667 9.52708 5.66667 9.91667V12.75C5.66667 13.1396 5.52807 13.4732 5.25087 13.7509C4.97321 14.0281 4.63958 14.1667 4.25 14.1667ZM1.41667 12.75H4.25V9.91667H1.41667V12.75ZM12.75 5.66667H9.91667C9.52708 5.66667 9.19369 5.52783 8.9165 5.25017C8.63883 4.97297 8.5 4.63958 8.5 4.25V1.41667C8.5 1.02708 8.63883 0.693458 8.9165 0.415792C9.19369 0.138597 9.52708 0 9.91667 0H12.75C13.1396 0 13.4732 0.138597 13.7509 0.415792C14.0281 0.693458 14.1667 1.02708 14.1667 1.41667V4.25C14.1667 4.63958 14.0281 4.97297 13.7509 5.25017C13.4732 5.52783 13.1396 5.66667 12.75 5.66667ZM9.91667 4.25H12.75V1.41667H9.91667V4.25ZM12.75 14.1667H9.91667C9.52708 14.1667 9.19369 14.0281 8.9165 13.7509C8.63883 13.4732 8.5 13.1396 8.5 12.75V9.91667C8.5 9.52708 8.63883 9.19346 8.9165 8.91579C9.19369 8.6386 9.52708 8.5 9.91667 8.5H12.75C13.1396 8.5 13.4732 8.6386 13.7509 8.91579C14.0281 9.19346 14.1667 9.52708 14.1667 9.91667V12.75C14.1667 13.1396 14.0281 13.4732 13.7509 13.7509C13.4732 14.0281 13.1396 14.1667 12.75 14.1667ZM9.91667 12.75H12.75V9.91667H9.91667V12.75Z" fill="white"/>
</svg>
