<svg width="28" height="28" viewBox="0 0 28 28" fill="none" xmlns="http://www.w3.org/2000/svg">
<path d="M15.1663 8.16732H12.833V12.834H8.16634V15.1673H12.833V19.834H15.1663V15.1673H19.833V12.834H15.1663V8.16732ZM13.9997 2.33398C7.55967 2.33398 2.33301 7.56065 2.33301 14.0007C2.33301 20.4407 7.55967 25.6673 13.9997 25.6673C20.4397 25.6673 25.6663 20.4407 25.6663 14.0007C25.6663 7.56065 20.4397 2.33398 13.9997 2.33398ZM13.9997 23.334C8.85467 23.334 4.66634 19.1457 4.66634 14.0007C4.66634 8.85565 8.85467 4.66732 13.9997 4.66732C19.1447 4.66732 23.333 8.85565 23.333 14.0007C23.333 19.1457 19.1447 23.334 13.9997 23.334Z" fill="white"/>
</svg>
