<svg width="28" height="28" viewBox="0 0 28 28" fill="none" xmlns="http://www.w3.org/2000/svg">
<path d="M13.9997 19.834C14.3302 19.834 14.6075 19.722 14.8315 19.498C15.0547 19.2748 15.1663 18.9979 15.1663 18.6673V13.9715C15.1663 13.6409 15.0547 13.3687 14.8315 13.1548C14.6075 12.9409 14.3302 12.834 13.9997 12.834C13.6691 12.834 13.3922 12.9456 13.169 13.1688C12.945 13.3928 12.833 13.6701 12.833 14.0007V18.6965C12.833 19.027 12.945 19.2993 13.169 19.5132C13.3922 19.727 13.6691 19.834 13.9997 19.834ZM13.9997 10.5007C14.3302 10.5007 14.6075 10.3887 14.8315 10.1647C15.0547 9.94143 15.1663 9.66454 15.1663 9.33398C15.1663 9.00343 15.0547 8.72615 14.8315 8.50215C14.6075 8.27893 14.3302 8.16732 13.9997 8.16732C13.6691 8.16732 13.3922 8.27893 13.169 8.50215C12.945 8.72615 12.833 9.00343 12.833 9.33398C12.833 9.66454 12.945 9.94143 13.169 10.1647C13.3922 10.3887 13.6691 10.5007 13.9997 10.5007ZM13.9997 25.6673C12.3858 25.6673 10.8691 25.3609 9.44967 24.748C8.03023 24.1359 6.79551 23.3048 5.74551 22.2548C4.69551 21.2048 3.86445 19.9701 3.25234 18.5506C2.63945 17.1312 2.33301 15.6145 2.33301 14.0007C2.33301 12.3868 2.63945 10.8701 3.25234 9.45065C3.86445 8.03121 4.69551 6.79648 5.74551 5.74648C6.79551 4.69648 8.03023 3.86504 9.44967 3.25215C10.8691 2.64004 12.3858 2.33398 13.9997 2.33398C15.6136 2.33398 17.1302 2.64004 18.5497 3.25215C19.9691 3.86504 21.2038 4.69648 22.2538 5.74648C23.3038 6.79648 24.1349 8.03121 24.747 9.45065C25.3599 10.8701 25.6663 12.3868 25.6663 14.0007C25.6663 15.6145 25.3599 17.1312 24.747 18.5506C24.1349 19.9701 23.3038 21.2048 22.2538 22.2548C21.2038 23.3048 19.9691 24.1359 18.5497 24.748C17.1302 25.3609 15.6136 25.6673 13.9997 25.6673ZM13.9997 23.334C16.5858 23.334 18.7881 22.4251 20.6065 20.6075C22.4242 18.789 23.333 16.5868 23.333 14.0007C23.333 11.4145 22.4242 9.21226 20.6065 7.39382C18.7881 5.57615 16.5858 4.66732 13.9997 4.66732C11.4136 4.66732 9.21167 5.57615 7.39401 7.39382C5.57556 9.21226 4.66634 11.4145 4.66634 14.0007C4.66634 16.5868 5.57556 18.789 7.39401 20.6075C9.21167 22.4251 11.4136 23.334 13.9997 23.334Z" fill="white"/>
</svg>
