<svg width="32" height="32" viewBox="0 0 32 32" fill="none" xmlns="http://www.w3.org/2000/svg">
<path fill-rule="evenodd" clip-rule="evenodd" d="M14.2698 7.00073C14.0485 7.00073 13.8431 7.12073 13.7338 7.31273L9.27245 15.1434C8.68144 16.1816 8.43364 17.38 8.56445 18.5674L9.03511 22.8527C9.07591 23.2229 9.24085 23.5683 9.50307 23.8327C9.76529 24.0971 10.1093 24.2649 10.4791 24.3087L13.3018 24.6447C15.1652 24.8664 17.0545 24.6743 18.8351 24.0821C19.7151 23.7887 20.4191 23.1221 20.7578 22.2594L23.0298 16.4861C23.1528 16.1732 23.1903 15.8332 23.1385 15.501C23.0867 15.1689 22.9475 14.8565 22.7351 14.5959C22.5227 14.3353 22.2447 14.1359 21.9298 14.0182C21.6149 13.9005 21.2744 13.8687 20.9431 13.9261L16.3885 14.7167C16.0557 14.7745 15.7138 14.7505 15.3924 14.6468C15.0709 14.543 14.7795 14.3626 14.5433 14.1212C14.3071 13.8797 14.1332 13.5844 14.0365 13.2608C13.9398 12.9371 13.9234 12.5948 13.9885 12.2634L14.8751 7.73673C14.8926 7.64734 14.8901 7.55519 14.8678 7.46687C14.8455 7.37856 14.8039 7.29628 14.7461 7.22592C14.6882 7.15557 14.6155 7.0989 14.5332 7.05997C14.4508 7.02103 14.3609 7.0008 14.2698 7.00073ZM11.9965 6.32206C12.3031 5.78146 12.7923 5.36771 13.3763 5.15493C13.9602 4.94215 14.6009 4.94425 15.1835 5.16085C15.766 5.37745 16.2525 5.7944 16.5556 6.337C16.8587 6.87961 16.9588 7.51242 16.8378 8.12207L15.9511 12.6487C15.9476 12.6618 15.9476 12.6756 15.9511 12.6887C15.956 12.7014 15.9638 12.7128 15.9738 12.7221C15.983 12.7321 15.9944 12.7399 16.0071 12.7447C16.0201 12.7487 16.0339 12.7492 16.0471 12.7461L20.6005 11.9554C21.2816 11.8367 21.9821 11.9016 22.6299 12.1433C23.2777 12.385 23.8494 12.7949 24.2863 13.3307C24.7232 13.8666 25.0095 14.5092 25.1158 15.1924C25.2221 15.8756 25.1446 16.5748 24.8911 17.2181L22.6191 22.9914C22.3443 23.6899 21.9195 24.3196 21.3746 24.8359C20.8297 25.3522 20.1781 25.7426 19.4658 25.9794C17.4064 26.6647 15.2211 26.8874 13.0658 26.6314L10.2431 26.2954C9.42428 26.1981 8.66255 25.8263 8.08214 25.2406C7.50174 24.6548 7.1369 23.8898 7.04712 23.0701L6.57645 18.7861C6.39992 17.179 6.73593 15.5573 7.53645 14.1527L11.9965 6.32206Z" fill="white"/>
</svg>
