<svg width="32" height="32" viewBox="0 0 32 32" fill="none" xmlns="http://www.w3.org/2000/svg">
<path d="M12.667 12.4327V19.566C12.667 20.0993 12.9003 20.4882 13.367 20.7327C13.8337 20.9771 14.2892 20.9549 14.7337 20.666L20.267 17.1327C20.6892 16.8882 20.9003 16.5105 20.9003 15.9993C20.9003 15.4882 20.6892 15.1105 20.267 14.866L14.7337 11.3327C14.2892 11.0438 13.8337 11.0216 13.367 11.266C12.9003 11.5105 12.667 11.8993 12.667 12.4327ZM16.0003 29.3327C14.1559 29.3327 12.4225 28.9825 10.8003 28.282C9.1781 27.5825 7.76699 26.6327 6.56699 25.4327C5.36699 24.2327 4.41721 22.8216 3.71766 21.1993C3.01721 19.5771 2.66699 17.8438 2.66699 15.9993C2.66699 14.1549 3.01721 12.4216 3.71766 10.7993C4.41721 9.17713 5.36699 7.76602 6.56699 6.56602C7.76699 5.36602 9.1781 4.41579 10.8003 3.71535C12.4225 3.01579 14.1559 2.66602 16.0003 2.66602C17.8448 2.66602 19.5781 3.01579 21.2003 3.71535C22.8225 4.41579 24.2337 5.36602 25.4337 6.56602C26.6337 7.76602 27.5834 9.17713 28.283 10.7993C28.9834 12.4216 29.3337 14.1549 29.3337 15.9993C29.3337 17.8438 28.9834 19.5771 28.283 21.1993C27.5834 22.8216 26.6337 24.2327 25.4337 25.4327C24.2337 26.6327 22.8225 27.5825 21.2003 28.282C19.5781 28.9825 17.8448 29.3327 16.0003 29.3327ZM16.0003 26.666C18.9559 26.666 21.4728 25.6273 23.551 23.55C25.6283 21.4718 26.667 18.9549 26.667 15.9993C26.667 13.0438 25.6283 10.5269 23.551 8.44868C21.4728 6.37135 18.9559 5.33268 16.0003 5.33268C13.0448 5.33268 10.5283 6.37135 8.45099 8.44868C6.37277 10.5269 5.33366 13.0438 5.33366 15.9993C5.33366 18.9549 6.37277 21.4718 8.45099 23.55C10.5283 25.6273 13.0448 26.666 16.0003 26.666Z" fill="white"/>
</svg>
