<svg width="24" height="24" viewBox="0 0 24 24" fill="none" xmlns="http://www.w3.org/2000/svg">
<path d="M12.0003 8.89961V14.7996L14.4003 16.6496L13.5003 13.5996L15.7503 11.9996H12.9503L12.0003 8.89961ZM12.0003 17.2996L8.30031 20.1246C8.11697 20.2746 7.91697 20.3453 7.70031 20.3366C7.48364 20.3286 7.29197 20.2663 7.12531 20.1496C6.95864 20.0329 6.82964 19.8746 6.73831 19.6746C6.64631 19.4746 6.64197 19.2579 6.72531 19.0246L8.15031 14.3996L4.52531 11.8246C4.32531 11.6913 4.20031 11.5163 4.15031 11.2996C4.10031 11.0829 4.10864 10.8829 4.17531 10.6996C4.24197 10.5163 4.35864 10.3536 4.52531 10.2116C4.69197 10.0703 4.89197 9.99961 5.12531 9.99961H9.60031L11.0503 5.19961C11.1336 4.96628 11.263 4.78694 11.4383 4.66161C11.613 4.53694 11.8003 4.47461 12.0003 4.47461C12.2003 4.47461 12.3876 4.53694 12.5623 4.66161C12.7376 4.78694 12.867 4.96628 12.9503 5.19961L14.4003 9.99961H18.8753C19.1086 9.99961 19.3086 10.0703 19.4753 10.2116C19.642 10.3536 19.7586 10.5163 19.8253 10.6996C19.892 10.8829 19.9003 11.0829 19.8503 11.2996C19.8003 11.5163 19.6753 11.6913 19.4753 11.8246L15.8503 14.3996L17.2753 19.0246C17.3586 19.2579 17.3546 19.4746 17.2633 19.6746C17.1713 19.8746 17.042 20.0329 16.8753 20.1496C16.7086 20.2663 16.517 20.3286 16.3003 20.3366C16.0836 20.3453 15.8836 20.2746 15.7003 20.1246L12.0003 17.2996Z" fill="white"/>
</svg>
