<svg width="18" height="18" viewBox="0 0 18 18" fill="none" xmlns="http://www.w3.org/2000/svg">
<path d="M8.99935 11.5003L12.3327 8.16699H5.66602L8.99935 11.5003ZM8.99935 17.3337C7.84657 17.3337 6.76324 17.1148 5.74935 16.677C4.73546 16.2398 3.85352 15.6462 3.10352 14.8962C2.35352 14.1462 1.7599 13.2642 1.32268 12.2503C0.884905 11.2364 0.666016 10.1531 0.666016 9.00033C0.666016 7.84755 0.884905 6.76421 1.32268 5.75033C1.7599 4.73644 2.35352 3.85449 3.10352 3.10449C3.85352 2.35449 4.73546 1.7606 5.74935 1.32283C6.76324 0.885603 7.84657 0.666992 8.99935 0.666992C10.1521 0.666992 11.2355 0.885603 12.2493 1.32283C13.2632 1.7606 14.1452 2.35449 14.8952 3.10449C15.6452 3.85449 16.2388 4.73644 16.676 5.75033C17.1138 6.76421 17.3327 7.84755 17.3327 9.00033C17.3327 10.1531 17.1138 11.2364 16.676 12.2503C16.2388 13.2642 15.6452 14.1462 14.8952 14.8962C14.1452 15.6462 13.2632 16.2398 12.2493 16.677C11.2355 17.1148 10.1521 17.3337 8.99935 17.3337Z" fill="white"/>
</svg>
